<svg width="28" height="28" viewBox="0 0 32 32" fill="none" xmlns="http://www.w3.org/2000/svg">
  <path d="M16.004 2.667c-7.36 0-13.333 5.973-13.333 13.333 0 2.353.615 4.65 1.784 6.667L2.667 29.333l6.822-1.756a13.27 13.27 0 0 0 6.515 1.72h.006c7.36 0 13.333-5.973 13.333-13.334 0-3.56-1.387-6.906-3.905-9.424a13.24 13.24 0 0 0-9.428-3.906Z" fill="#FFFFFF"/>
  <path d="M16.004 2.667c-7.36 0-13.333 5.973-13.333 13.333 0 2.353.615 4.65 1.784 6.667L2.667 29.333l6.822-1.756a13.27 13.27 0 0 0 6.515 1.72h.006c7.36 0 13.333-5.973 13.333-13.334 0-3.56-1.387-6.906-3.905-9.424a13.24 13.24 0 0 0-9.428-3.906Zm0 24.404h-.005a11.08 11.08 0 0 1-5.65-1.548l-.406-.241-4.05 1.043 1.082-3.947-.264-.405a11.08 11.08 0 0 1-1.7-5.905c0-6.135 4.994-11.129 11.13-11.129a11.06 11.06 0 0 1 7.868 3.26 11.06 11.06 0 0 1 3.257 7.872c-.003 6.136-4.996 11.13-11.132 11.13Z" fill="#25D366"/>
  <path d="M22.297 18.905c-.345-.173-2.04-1.007-2.356-1.122-.316-.115-.546-.173-.775.173-.23.345-.891 1.122-1.093 1.352-.201.23-.402.259-.747.086-.345-.173-1.456-.537-2.774-1.712-1.025-.914-1.718-2.043-1.919-2.388-.201-.345-.021-.532.152-.704.156-.155.345-.403.518-.605.173-.201.23-.345.345-.575.115-.23.058-.432-.029-.605-.086-.173-.775-1.868-1.062-2.559-.28-.673-.564-.582-.775-.593-.201-.01-.431-.012-.661-.012-.23 0-.604.086-.92.432-.316.345-1.207 1.18-1.207 2.876s1.236 3.335 1.408 3.565c.173.23 2.432 3.713 5.892 5.207.823.355 1.466.567 1.967.726.827.263 1.579.226 2.174.137.663-.099 2.04-.834 2.328-1.64.288-.806.288-1.496.201-1.64-.086-.144-.316-.23-.661-.402Z" fill="#FFFFFF"/>
</svg>
